<svg xmlns="http://www.w3.org/2000/svg" version="1.1" xmlns:xlink="http://www.w3.org/1999/xlink" xmlns:svgjs="http://svgjs.dev/svgjs" width="1000" height="1000" viewBox="0 0 1000 1000"><rect width="1000" height="1000" fill="#000000"></rect><g transform="matrix(0.7,0,0,0.7,149.84897959183667,150.19913061224486)"><svg viewBox="0 0 343 343" data-background-color="#0d0d0d" preserveAspectRatio="xMidYMid meet" height="999" width="1000" xmlns="http://www.w3.org/2000/svg" xmlns:xlink="http://www.w3.org/1999/xlink"><g id="tight-bounds" transform="matrix(1,0,0,1,0.0740000000000407,0.07400000000001228)"><svg viewBox="0 0 342.85155851775386 342.85155851775386" height="342.85155851775386" width="342.85155851775386"><g><svg></svg></g><g><svg viewBox="0 0 342.85155851775386 342.85155851775386" height="342.85155851775386" width="342.85155851775386"><g><path d="M0 171.426c0-94.676 76.75-171.426 171.426-171.426 94.676 0 171.426 76.75 171.426 171.426 0 94.676-76.75 171.426-171.426 171.426-94.676 0-171.426-76.75-171.426-171.426zM171.426 339.671c92.919 0 168.245-75.326 168.245-168.245 0-92.919-75.326-168.245-168.245-168.246-92.919 0-168.245 75.326-168.246 168.246 0 92.919 75.326 168.245 168.246 168.245z" data-fill-palette-color="tertiary" fill="#ffffff" stroke="transparent"></path><ellipse rx="164.56874808852186" ry="164.56874808852186" cx="171.42577925887693" cy="171.42577925887693" fill="#ffffff" stroke="transparent" stroke-width="0" fill-opacity="1" data-fill-palette-color="tertiary"></ellipse></g><g transform="matrix(1,0,0,1,64.84655864529837,125.25937637222975)"><svg viewBox="0 0 213.1584412271571 92.33280577329434" height="92.33280577329434" width="213.1584412271571"><g><svg viewBox="0 0 213.1584412271571 92.33280577329434" height="92.33280577329434" width="213.1584412271571"><g><svg viewBox="0 0 213.15844122715714 92.33280577329435" height="92.33280577329434" width="213.1584412271571"><g transform="matrix(1,0,0,1,0,57.065378176351274)"><svg viewBox="0 0 213.15844122715714 35.26742759694308" height="35.26742759694308" width="213.15844122715714"><g id="textblocktransform"><svg viewBox="0 0 213.15844122715714 35.26742759694308" height="35.26742759694308" width="213.15844122715714" id="textblock"><g><svg viewBox="0 0 213.15844122715714 35.26742759694308" height="35.26742759694308" width="213.15844122715714"><g transform="matrix(1,0,0,1,0,0)"><svg width="213.15844122715714" viewBox="-2.1 -43.6 384.06 63.550000000000004" height="35.26742759694308" data-palette-color="#ffffff"><path d="M21.2 0.5Q18.85 0.5 18.3-2.9L18.3-2.9Q17.85-5.65 17.85-12.75L17.85-12.75 16.6-11.8 10.5-11.8Q9.35-8.85 7.83-6.5 6.3-4.15 4.6-3L4.6-3 4.6-2.9Q5.25-2.6 5.85-2.6L5.85-2.6Q6.6-2.6 7.28-2.85 7.95-3.1 8.1-3.1L8.1-3.1Q8.45-3.1 8.45-2.85L8.45-2.85Q8.45-2.5 7.75-1.65L7.75-1.65Q6.95-0.85 6.05-0.43 5.15 0 4.35 0L4.35 0Q3.7 0 2.5-0.4L2.5-0.4Q1.3-0.8 0.7-0.8L0.7-0.8Q-0.05-0.8-0.83-0.4-1.6 0-1.85 0L-1.85 0Q-2.1 0-2.1-0.25L-2.1-0.25Q-2.1-0.75-1.7-1.43-1.3-2.1-0.75-2.35L-0.75-2.35Q-0.45-2.5-0.18-2.55 0.1-2.6 0.5-2.75L0.5-2.75Q2.45-3.5 3.93-5.48 5.4-7.45 6.45-9.93 7.5-12.4 8.85-16.25L8.85-16.25Q10.4-20.6 11.53-23.33 12.65-26.05 14.2-28.38 15.75-30.7 17.75-32L17.75-32 17.75-32.05Q17.05-32.15 16.7-32.25L16.7-32.25Q16.5-32.3 15.48-32.45 14.45-32.6 12.85-32.6L12.85-32.6Q10.15-32.6 8.33-31.6 6.5-30.6 4.9-28.35L4.9-28.35Q4.4-27.55 4.1-27.55L4.1-27.55Q3.8-27.55 3.8-27.95L3.8-27.95 3.85-28.45Q4.6-31.5 7.28-33.35 9.95-35.2 13.5-35.2L13.5-35.2Q14.95-35.2 17.85-34.7L17.85-34.7Q20.55-34.2 21.7-34.2L21.7-34.2Q23-34.2 24.45-34.7L24.45-34.7 24.45-34.65Q23.1-32.4 22.35-27.63 21.6-22.85 21.6-15.8L21.6-15.8Q21.6-8.55 21.9-6L21.9-6Q22-4.55 22.33-3.83 22.65-3.1 23.45-3.1L23.45-3.1Q23.95-3.1 24.43-3.35 24.9-3.6 25.7-4.1L25.7-4.1Q26.65-4.75 26.9-4.75L26.9-4.75Q27.2-4.75 27.2-4.55L27.2-4.55Q27.2-4.15 26.9-3.6L26.9-3.6Q25.95-1.9 24.33-0.7 22.7 0.5 21.2 0.5L21.2 0.5ZM11.4-14.8L17.9-14.8Q18-19.4 18.55-23.93 19.1-28.45 19.95-31.3L19.95-31.3 19.9-31.3Q17.95-30.4 16.13-26.95 14.3-23.5 11.95-16.5L11.95-16.5 11.4-14.8ZM29.95 19.95Q28 19.95 26.65 18.88 25.3 17.8 24.65 16.15 24 14.5 24 12.75L24 12.75Q24 11.1 24.6 10.13 25.2 9.15 25.9 8.8 26.6 8.45 26.95 8.45L26.95 8.45Q27.2 8.45 27.2 8.95L27.2 8.95Q27.2 16.75 32.2 16.75L32.2 16.75Q35.75 16.75 37.75 12.5L37.75 12.5Q38.5 10.85 39.15 8.35 39.8 5.85 40.9 0.55L40.9 0.55Q41.35-1.6 41.4-1.9L41.4-1.9 42.9-8.8 42.85-8.8Q41.65-6.3 40-4.17 38.35-2.05 36.75-0.78 35.15 0.5 34.15 0.5L34.15 0.5Q33.05 0.5 32.62-1.18 32.2-2.85 32.25-5.25L32.25-5.25 32.65-17.75Q32.7-18.15 32.7-18.85L32.7-18.85Q32.7-19.65 32.52-20.05 32.35-20.45 31.85-20.45L31.85-20.45Q31.2-20.45 30.4-19.6 29.6-18.75 29-17.4L29-17.4Q28.7-16.55 28.35-16.55L28.35-16.55Q27.95-16.55 27.95-17.15L27.95-17.15Q27.95-18.4 28.85-20 29.75-21.6 31.12-22.7 32.5-23.8 33.75-23.8L33.75-23.8Q35.15-23.8 35.65-22.4 36.15-21 36.15-18.6L36.15-18.6 36.1-17 35.65-8.75 35.6-7.1Q35.6-5.5 35.82-4.8 36.05-4.1 36.65-4.1L36.65-4.1Q37.75-4.1 39.25-6.2 40.75-8.3 42.1-11.35 43.45-14.4 44.1-17.05L44.1-17.05 44.85-20.1Q45.3-21.95 46.57-22.88 47.85-23.8 48.9-23.8L48.9-23.8Q49.3-23.8 49.3-23.55L49.3-23.55Q49.3-23.3 49.12-22.85 48.95-22.4 48.85-22.2L48.85-22.2Q48.45-21.15 48.15-19.93 47.85-18.7 47.55-17L47.55-17 44.9-2.8 44.4 0.05Q43.8 3.55 43.3 5.58 42.8 7.6 41.9 9.58 41 11.55 39.35 13.65L39.35 13.65Q37.1 16.65 34.65 18.3 32.2 19.95 29.95 19.95L29.95 19.95ZM56.5 0.5Q54.4 0.5 54.4-2.65L54.4-2.65Q54.4-4.2 54.9-7.05L54.9-7.05 56.59-17.35Q56.8-19.15 56.8-19.4L56.8-19.4Q56.8-20.15 56.4-20.15L56.4-20.15Q55.25-20.15 53.7-17.15L53.7-17.15Q53.59-16.95 53.37-16.48 53.15-16 53-15.88 52.84-15.75 52.7-15.75L52.7-15.75Q52.59-15.75 52.5-15.93 52.4-16.1 52.4-16.35L52.4-16.35Q52.4-17.35 53.42-19.18 54.45-21 55.95-22.4 57.45-23.8 58.8-23.8L58.8-23.8Q59.59-23.8 60.07-23.13 60.55-22.45 60.55-21.3L60.55-21.3Q60.55-20.55 60.45-20.15L60.45-20.15 58.09-5.4Q58-4.7 58-4.5L58-4.5Q58-3.45 58.8-3.45L58.8-3.45Q60.45-3.45 62.37-5.68 64.3-7.9 65.77-11 67.25-14.1 67.7-16.45L67.7-16.45 68.4-20.1Q68.8-21.9 70.02-22.85 71.25-23.8 72.3-23.8L72.3-23.8Q72.7-23.8 72.7-23.55L72.7-23.55Q72.7-23.4 72.5-22.98 72.3-22.55 72.2-21.95L72.2-21.95Q71.5-18.85 69.45-7.55L69.45-7.55 69.15-5.95Q68.8-4.2 68.8-3.8L68.8-3.8Q68.8-3.1 69.25-3.1L69.25-3.1Q70.05-3.1 71.02-4.38 72-5.65 72.59-7.15L72.59-7.15Q72.9-7.7 73.09-7.7L73.09-7.7Q73.4-7.7 73.4-7.25L73.4-7.25Q73.4-6.7 73.3-6.3L73.3-6.3Q72.95-4.5 71.9-2.95 70.84-1.4 69.55-0.45 68.25 0.5 67.15 0.5L67.15 0.5Q65.2 0.5 65.3-2.6L65.3-2.6Q65.4-3.95 65.9-6.25L65.9-6.25 66.34-8.7 66.3-8.7Q63.7-4.55 61-2.02 58.3 0.5 56.5 0.5L56.5 0.5ZM79.74 0.5Q78.19 0.5 77.09-0.35 75.99-1.2 75.64-2.6L75.64-2.6Q75.54-3 75.97-3.88 76.39-4.75 77.09-5.6L77.09-5.6Q77.49-6.05 77.74-6.05L77.74-6.05Q77.99-6.05 78.14-5.65L78.14-5.65Q79.64-2.15 82.29-2.15L82.29-2.15Q83.64-2.15 84.42-2.98 85.19-3.8 85.19-5.2L85.19-5.2Q85.19-7.1 83.04-10.1L83.04-10.1 81.99-11.6Q80.79-13.3 80.32-14.4 79.84-15.5 79.84-16.75L79.84-16.75Q79.84-18.75 80.92-20.35 81.99-21.95 83.74-22.88 85.49-23.8 87.39-23.8L87.39-23.8Q90.99-23.8 90.99-21.35L90.99-21.35Q90.99-20.45 90.34-19.55L90.34-19.55Q89.99-18.95 89.74-18.95L89.74-18.95Q89.44-18.95 89.19-19.55L89.19-19.55Q88.64-20.5 87.87-20.93 87.09-21.35 85.89-21.35L85.89-21.35Q84.49-21.35 83.64-20.6 82.79-19.85 82.79-18.7L82.79-18.7Q82.79-18.05 83.22-17.23 83.64-16.4 84.84-14.7L84.84-14.7 85.89-13.25Q87.29-11.4 87.84-10.08 88.39-8.75 88.39-7.3L88.39-7.3Q88.39-5.45 87.19-3.63 85.99-1.8 83.99-0.65 81.99 0.5 79.74 0.5L79.74 0.5ZM93.29 0.5Q92.94 0.5 92.94 0.25L92.94 0.25Q92.99-0.05 93.27-1.03 93.54-2 93.74-3L93.74-3Q94.04-4.35 95.79-14.85L95.79-14.85Q95.69-14.3 97.04-22.45L97.04-22.45Q97.99-28.15 99.62-32.65 101.24-37.15 104.14-40L104.14-40Q105.79-41.55 107.32-42.18 108.84-42.8 110.59-43.05L110.59-43.05Q111.19-43.1 111.84-43.35 112.49-43.6 112.59-43.6L112.59-43.6Q112.94-43.6 112.94-43.2L112.94-43.2Q112.94-42.65 112.04-41.75L112.04-41.75Q111.59-41.3 111.19-41.15 110.79-41 110.37-40.95 109.94-40.9 109.69-40.85L109.69-40.85Q108.29-40.65 107.32-40.08 106.34-39.5 105.29-38.25L105.29-38.25Q103.29-35.75 102.37-32.48 101.44-29.2 100.64-24.25L100.64-24.25Q100.44-22.65 100.29-21.9L100.29-21.9 99.19-14.9 99.24-14.9Q101.59-18.95 104.34-21.38 107.09-23.8 109.09-23.8L109.09-23.8Q111.19-23.8 111.19-20.75L111.19-20.75Q111.19-19.35 110.79-17.15L110.79-17.15Q109.84-12.4 109.84-12.4L109.84-12.4Q108.39-5.05 108.39-3.95L108.39-3.95Q108.39-3.05 109.09-3.05L109.09-3.05Q109.94-3.05 110.64-4.17 111.34-5.3 112.14-7.15L112.14-7.15Q112.19-7.2 112.32-7.45 112.44-7.7 112.64-7.7L112.64-7.7Q112.99-7.7 112.99-7.1L112.99-7.1 112.89-6.3Q112.54-4.5 111.47-2.93 110.39-1.35 109.07-0.43 107.74 0.5 106.64 0.5L106.64 0.5Q104.84 0.5 104.84-2.35L104.84-2.35Q104.84-3.75 105.17-5.65 105.49-7.55 106.09-10.4L106.09-10.4Q106.69-13.25 107.02-15.05 107.34-16.85 107.39-18.3L107.39-18.3Q107.39-19.25 107.24-19.6 107.09-19.95 106.39-19.95L106.39-19.95Q104.84-19.95 103.07-17.93 101.29-15.9 99.89-12.95 98.49-10 97.99-7.45L97.99-7.45 97.19-3.1Q96.99-1.8 95.69-0.65 94.39 0.5 93.29 0.5L93.29 0.5ZM117.89-23.95Q117.54-23.95 117.41-24 117.29-24.05 117.29-24.25L117.29-24.25Q117.29-24.5 117.54-25.13 117.79-25.75 117.94-26.25L117.94-26.25Q118.44-27.8 118.69-29.7 118.94-31.6 119.19-34.1L119.19-34.1 119.29-35.2Q119.34-35.65 120.21-35.88 121.09-36.1 122.09-36.1L122.09-36.1Q122.49-36.1 122.56-36.05 122.64-36 122.59-35.65L122.59-35.65 122.39-34.1Q122.14-31.9 121.86-30.43 121.59-28.95 121.09-27.65L121.09-27.65Q119.89-23.95 117.89-23.95L117.89-23.95ZM124.24 0.5Q122.69 0.5 121.59-0.35 120.49-1.2 120.14-2.6L120.14-2.6Q120.04-3 120.46-3.88 120.89-4.75 121.59-5.6L121.59-5.6Q121.99-6.05 122.24-6.05L122.24-6.05Q122.49-6.05 122.64-5.65L122.64-5.65Q124.14-2.15 126.79-2.15L126.79-2.15Q128.14-2.15 128.91-2.98 129.69-3.8 129.69-5.2L129.69-5.2Q129.69-7.1 127.54-10.1L127.54-10.1 126.49-11.6Q125.29-13.3 124.81-14.4 124.34-15.5 124.34-16.75L124.34-16.75Q124.34-18.75 125.41-20.35 126.49-21.95 128.24-22.88 129.99-23.8 131.89-23.8L131.89-23.8Q135.49-23.8 135.49-21.35L135.49-21.35Q135.49-20.45 134.84-19.55L134.84-19.55Q134.49-18.95 134.24-18.95L134.24-18.95Q133.94-18.95 133.69-19.55L133.69-19.55Q133.14-20.5 132.36-20.93 131.59-21.35 130.39-21.35L130.39-21.35Q128.99-21.35 128.14-20.6 127.29-19.85 127.29-18.7L127.29-18.7Q127.29-18.05 127.71-17.23 128.14-16.4 129.34-14.7L129.34-14.7 130.39-13.25Q131.79-11.4 132.34-10.08 132.89-8.75 132.89-7.3L132.89-7.3Q132.89-5.45 131.69-3.63 130.49-1.8 128.49-0.65 126.49 0.5 124.24 0.5L124.24 0.5ZM154.48 0Q154.23 0 154.23-0.5L154.23-0.5Q154.23-1.05 154.48-1.5 154.73-1.95 155.33-2.55L155.33-2.55Q156.48-3.6 156.83-4.08 157.18-4.55 157.36-5.33 157.53-6.1 157.98-8.6L157.98-8.6 161.03-26.4Q161.23-27.65 162.76-28.9 164.28-30.15 165.48-30.15L165.48-30.15Q166.03-30.15 166.03-29.9L166.03-29.9Q166.03-29.75 165.56-29.05 165.08-28.35 164.83-26.7L164.83-26.7 163.33-17.15Q164.03-17 165.53-17L165.53-17Q167.93-17 169.81-18.13 171.68-19.25 172.73-21.2 173.78-23.15 173.78-25.55L173.78-25.55Q173.78-28.95 171.68-30.73 169.58-32.5 165.68-32.5L165.68-32.5Q162.68-32.5 160.13-31.4 157.58-30.3 155.63-28.1L155.63-28.1Q155.18-27.5 154.93-27.28 154.68-27.05 154.38-27.05L154.38-27.05Q154.08-27.05 154.08-27.4L154.08-27.4 154.13-27.95Q154.58-29.8 156.38-31.48 158.18-33.15 161.03-34.18 163.88-35.2 167.28-35.2L167.28-35.2Q172.03-35.2 174.88-33.08 177.73-30.95 177.73-27.2L177.73-27.2Q177.73-23.9 175.53-21.03 173.33-18.15 169.86-16.32 166.38-14.5 162.68-14.2L162.68-14.2 161.23-5.5Q160.98-4.2 160.28-3.4L160.28-3.4 160.28-3.35Q160.53-3.25 161.03-3.08 161.53-2.9 162.03-2.9L162.03-2.9Q162.63-2.9 163.26-3.18 163.88-3.45 164.08-3.45L164.08-3.45Q164.38-3.45 164.38-3.1L164.38-3.1Q164.38-2.65 163.78-2.05L163.78-2.05Q161.88 0 160.73 0L160.73 0Q160.28 0 159.08-0.4L159.08-0.4Q157.48-0.85 156.98-0.85L156.98-0.85Q156.23-0.85 155.43-0.43 154.63 0 154.48 0L154.48 0ZM178.63 0.5Q178.28 0.5 178.28 0.25L178.28 0.25Q178.33-0.05 178.6-1.03 178.88-2 179.08-3L179.08-3Q179.38-4.35 181.13-14.85L181.13-14.85Q181.03-14.3 182.38-22.45L182.38-22.45Q183.33-28.15 184.95-32.65 186.58-37.15 189.48-40L189.48-40Q191.13-41.55 192.65-42.18 194.18-42.8 195.93-43.05L195.93-43.05Q196.53-43.1 197.18-43.35 197.83-43.6 197.93-43.6L197.93-43.6Q198.28-43.6 198.28-43.2L198.28-43.2Q198.28-42.65 197.38-41.75L197.38-41.75Q196.93-41.3 196.53-41.15 196.13-41 195.7-40.95 195.28-40.9 195.03-40.85L195.03-40.85Q193.63-40.65 192.65-40.08 191.68-39.5 190.63-38.25L190.63-38.25Q188.63-35.75 187.7-32.48 186.78-29.2 185.98-24.25L185.98-24.25Q185.78-22.65 185.63-21.9L185.63-21.9 184.53-14.9 184.58-14.9Q186.93-18.95 189.68-21.38 192.43-23.8 194.43-23.8L194.43-23.8Q196.53-23.8 196.53-20.75L196.53-20.75Q196.53-19.35 196.13-17.15L196.13-17.15Q195.18-12.4 195.18-12.4L195.18-12.4Q193.73-5.05 193.73-3.95L193.73-3.95Q193.73-3.05 194.43-3.05L194.43-3.05Q195.28-3.05 195.98-4.17 196.68-5.3 197.48-7.15L197.48-7.15Q197.53-7.2 197.65-7.45 197.78-7.7 197.98-7.7L197.98-7.7Q198.33-7.7 198.33-7.1L198.33-7.1 198.23-6.3Q197.88-4.5 196.8-2.93 195.73-1.35 194.4-0.43 193.08 0.5 191.98 0.5L191.98 0.5Q190.18 0.5 190.18-2.35L190.18-2.35Q190.18-3.75 190.5-5.65 190.83-7.55 191.43-10.4L191.43-10.4Q192.03-13.25 192.35-15.05 192.68-16.85 192.73-18.3L192.73-18.3Q192.73-19.25 192.58-19.6 192.43-19.95 191.73-19.95L191.73-19.95Q190.18-19.95 188.4-17.93 186.63-15.9 185.23-12.95 183.83-10 183.33-7.45L183.33-7.45 182.53-3.1Q182.33-1.8 181.03-0.65 179.73 0.5 178.63 0.5L178.63 0.5ZM205.98 0.5Q203.88 0.5 202.8-1.13 201.73-2.75 201.73-5.65L201.73-5.65Q201.73-9.7 203.68-13.95 205.63-18.2 208.5-21 211.38-23.8 213.98-23.8L213.98-23.8Q215.93-23.8 216.98-22.08 218.03-20.35 218.03-17.55L218.03-17.55Q218.03-13.8 216.2-9.55 214.38-5.3 211.58-2.4 208.78 0.5 205.98 0.5L205.98 0.5ZM208.43-2.8Q210.08-2.8 211.43-4.48 212.78-6.15 213.58-8.93 214.38-11.7 214.38-14.8L214.38-14.8Q214.38-20.5 211.43-20.5L211.43-20.5Q209.58-20.5 208.2-18.5 206.83-16.5 206.1-13.63 205.38-10.75 205.38-8.25L205.38-8.25Q205.38-5.85 206.1-4.33 206.83-2.8 208.43-2.8L208.43-2.8ZM226.47 0.5Q224.97 0.5 224.37-0.53 223.77-1.55 223.77-3.3L223.77-3.3Q223.77-4.6 224-6.08 224.22-7.55 224.27-7.85L224.27-7.85 226.32-20.7 221.27-20.7Q221.02-20.7 221.02-20.95L221.02-20.95Q221.02-21.45 222.12-22.38 223.22-23.3 223.72-23.3L223.72-23.3 226.72-23.3 227.22-26.4Q227.42-28.05 228.77-29.35 230.12-30.65 231.47-30.65L231.47-30.65Q231.72-30.65 231.72-30.4L231.72-30.4Q231.72-30.2 231.27-29.23 230.82-28.25 230.62-27.15L230.62-27.15 230.02-23.3 234.92-23.3Q235.22-23.3 235.22-23L235.22-23Q235.22-22.6 234.05-21.65 232.87-20.7 232.52-20.7L232.52-20.7 229.72-20.7 227.67-7.95Q227.62-7.6 227.4-6.25 227.17-4.9 227.17-4.15L227.17-4.15Q227.17-2.5 228.27-2.5L228.27-2.5Q229.07-2.5 229.97-3.28 230.87-4.05 231.57-5.45L231.57-5.45Q231.62-5.55 231.7-5.65 231.77-5.75 231.87-5.75L231.87-5.75Q232.12-5.75 232.12-5.1L232.12-5.1Q232.12-4.1 231.25-2.75 230.37-1.4 229.05-0.45 227.72 0.5 226.47 0.5L226.47 0.5ZM239.87 0.5Q237.77 0.5 236.7-1.13 235.62-2.75 235.62-5.65L235.62-5.65Q235.62-9.7 237.57-13.95 239.52-18.2 242.4-21 245.27-23.8 247.87-23.8L247.87-23.8Q249.82-23.8 250.87-22.08 251.92-20.35 251.92-17.55L251.92-17.55Q251.92-13.8 250.1-9.55 248.27-5.3 245.47-2.4 242.67 0.5 239.87 0.5L239.87 0.5ZM242.32-2.8Q243.97-2.8 245.32-4.48 246.67-6.15 247.47-8.93 248.27-11.7 248.27-14.8L248.27-14.8Q248.27-20.5 245.32-20.5L245.32-20.5Q243.47-20.5 242.1-18.5 240.72-16.5 240-13.63 239.27-10.75 239.27-8.25L239.27-8.25Q239.27-5.85 240-4.33 240.72-2.8 242.32-2.8L242.32-2.8ZM253.57 19.95Q251.57 19.95 250.19 18.88 248.82 17.8 248.14 16.18 247.47 14.55 247.47 12.85L247.47 12.85Q247.47 11.2 248.04 10.23 248.62 9.25 249.34 8.85 250.07 8.45 250.47 8.45L250.47 8.45Q250.77 8.45 250.77 8.85L250.77 8.85Q250.77 12.8 251.97 14.78 253.17 16.75 255.97 16.75L255.97 16.75Q260.17 16.75 262.27 12.5L262.27 12.5Q263.12 10.75 263.74 7.83 264.37 4.9 265.47-1.9L265.47-1.9Q265.87-4.6 267.02-8.35L267.02-8.35 266.97-8.45Q264.32-4.15 261.79-1.83 259.27 0.5 257.37 0.5L257.37 0.5Q254.77 0.5 254.77-4.4L254.77-4.4Q254.77-8.95 256.77-13.48 258.77-18 262.19-20.9 265.62-23.8 269.57-23.8L269.57-23.8Q271.57-23.8 273.17-23L273.17-23 272.47-20.7Q271.02-15.35 270.32-11.78 269.62-8.2 269.17-4.75L269.17-4.75Q268.87-2.6 268.92-2.8L268.92-2.8Q268.27 2.35 267.74 5.03 267.22 7.7 266.37 9.68 265.52 11.65 263.92 13.65L263.92 13.65Q261.57 16.55 258.77 18.25 255.97 19.95 253.57 19.95L253.57 19.95ZM259.72-3.6Q261.27-3.6 263.19-6 265.12-8.4 266.64-11.8 268.17-15.2 268.62-17.75L268.62-17.75 268.92-19.7Q268.42-20.3 267.64-20.63 266.87-20.95 266.17-20.95L266.17-20.95Q263.97-20.95 262.19-18.48 260.42-16 259.42-12.48 258.42-8.95 258.42-6.1L258.42-6.1Q258.42-4.85 258.72-4.23 259.02-3.6 259.72-3.6L259.72-3.6ZM277.32 0.5Q277.12 0.5 276.99 0.43 276.87 0.35 276.87 0.25L276.87 0.25Q276.87 0.1 277.17-0.4 277.47-0.9 277.62-1.8L277.62-1.8Q277.82-2.85 277.97-3.73 278.12-4.6 278.27-5.35L278.27-5.35Q279.52-12.2 279.94-14.93 280.37-17.65 280.32-18.9L280.32-18.9Q280.32-19.55 280.22-19.85 280.12-20.15 279.77-20.15L279.77-20.15Q279.32-20.15 278.62-19.4 277.92-18.65 277.32-17.65L277.32-17.65Q277.07-17.2 276.87-16.88 276.67-16.55 276.54-16.4 276.42-16.25 276.27-16.25L276.27-16.25Q276.07-16.25 275.97-16.4 275.87-16.55 275.87-16.8L275.87-16.8Q275.87-17.75 276.94-19.45 278.02-21.15 279.49-22.48 280.97-23.8 282.12-23.8L282.12-23.8Q283.07-23.8 283.44-23.05 283.82-22.3 283.82-20.7L283.82-20.7Q283.82-18.5 282.87-14.75L282.87-14.75 282.97-14.75Q287.72-23.8 291.77-23.8L291.77-23.8Q292.82-23.8 293.39-23.23 293.97-22.65 293.97-21.6L293.97-21.6Q293.97-20.5 293.49-19.35 293.02-18.2 292.34-17.45 291.67-16.7 291.12-16.7L291.12-16.7Q290.77-16.7 290.87-17.15L290.87-17.15Q291.02-17.85 291.02-18.25L291.02-18.25Q291.02-19.45 289.72-19.45L289.72-19.45Q288.17-19.45 286.62-17.65 285.07-15.85 283.89-13.25 282.72-10.65 282.27-8.5L282.27-8.5Q281.67-6.2 281.52-3.7L281.52-3.7Q281.42-2.75 280.64-1.78 279.87-0.8 278.87-0.15 277.87 0.5 277.32 0.5L277.32 0.5ZM296.41 0.5Q293.86 0.5 293.86-4.35L293.86-4.35Q293.86-9 295.89-13.53 297.91-18.05 301.36-20.93 304.81-23.8 308.81-23.8L308.81-23.8Q310.86-23.8 312.36-23.15L312.36-23.15Q311.71-20.6 311.46-19.4L311.46-19.4 310.41-14Q309.01-7.6 308.71-5.15L308.71-5.15Q308.66-4.8 308.66-4.3L308.66-4.3Q308.66-3.2 309.31-3.2L309.31-3.2Q310.11-3.2 310.81-4.23 311.51-5.25 312.41-7.15L312.41-7.15Q312.46-7.2 312.59-7.45 312.71-7.7 312.91-7.7L312.91-7.7Q313.21-7.7 313.21-7.1L313.21-7.1 313.11-6.3Q312.76-4.65 311.69-3.05 310.61-1.45 309.29-0.48 307.96 0.5 306.91 0.5L306.91 0.5Q305.16 0.5 305.16-2.35L305.16-2.35Q305.16-3.45 305.41-4.6L305.41-4.6 306.26-8.95 306.21-8.95Q303.81-4.75 301.09-2.13 298.36 0.5 296.41 0.5L296.41 0.5ZM298.76-3.6Q300.16-3.6 301.99-5.78 303.81-7.95 305.39-11.1 306.96-14.25 307.56-16.75L307.56-16.75 308.36-19.95Q306.86-20.95 305.21-20.95L305.21-20.95Q303.06-20.95 301.29-18.48 299.51-16 298.51-12.48 297.51-8.95 297.51-6.1L297.51-6.1Q297.51-4.85 297.79-4.23 298.06-3.6 298.76-3.6L298.76-3.6ZM307.96 19.95Q305.26 19.95 303.11 18.53 300.96 17.1 300.11 14.55L300.11 14.55Q300.01 14.15 300.01 13.9L300.01 13.9Q300.01 12.95 300.69 12.08 301.36 11.2 302.21 10.85L302.21 10.85 302.61 10.75Q302.81 10.75 302.86 11 302.91 11.25 302.91 11.3L302.91 11.3Q303.31 14.45 304.94 16.1 306.56 17.75 309.26 17.75L309.26 17.75Q312.36 17.75 314.26 14.83 316.16 11.9 317.11 5.65L317.11 5.65 320.61-16.85Q320.91-18.65 320.91-19.4L320.91-19.4Q320.91-20.15 320.51-20.15L320.51-20.15Q320.06-20.15 319.36-19.4 318.66-18.65 318.06-17.65L318.06-17.65Q317.86-17.35 317.61-16.93 317.36-16.5 317.21-16.38 317.06-16.25 316.91-16.25L316.91-16.25Q316.61-16.25 316.61-16.8L316.61-16.8Q316.61-17.7 317.71-19.43 318.81-21.15 320.29-22.48 321.76-23.8 322.86-23.8L322.86-23.8Q323.76-23.8 324.19-23.13 324.61-22.45 324.51-21.35L324.51-21.35Q324.36-19.85 323.86-16.85L323.86-16.85Q323.56-15.15 323.46-14.5L323.46-14.5 323.51-14.5Q325.46-18.05 328.19-20.93 330.91-23.8 332.91-23.8L332.91-23.8Q334.36-23.8 334.91-22.35 335.46-20.9 335.46-17.75L335.46-17.75Q335.46-13.45 333.51-9.18 331.56-4.9 328.49-2.2 325.41 0.5 322.16 0.5L322.16 0.5Q321.71 0.5 321.31 0.35L321.31 0.35 320.46 5.35Q319.71 9.65 317.94 12.98 316.16 16.3 313.59 18.13 311.01 19.95 307.96 19.95L307.96 19.95ZM325.06-2.5Q326.96-2.5 328.51-4.78 330.06-7.05 330.94-10.38 331.81-13.7 331.81-16.6L331.81-16.6Q331.81-18.25 331.56-18.98 331.31-19.7 330.76-19.7L330.76-19.7Q329.41-19.7 327.56-17.6 325.71-15.5 324.21-12.4 322.71-9.3 322.31-6.5L322.31-6.5 321.81-3.4Q322.61-2.9 323.36-2.7 324.11-2.5 325.06-2.5L325.06-2.5ZM337.96 0.5Q337.61 0.5 337.61 0.25L337.61 0.25Q337.66-0.05 337.93-1.03 338.21-2 338.41-3L338.41-3Q338.71-4.35 340.46-14.85L340.46-14.85Q340.36-14.3 341.71-22.45L341.71-22.45Q342.66-28.15 344.28-32.65 345.91-37.15 348.81-40L348.81-40Q350.46-41.55 351.98-42.18 353.51-42.8 355.26-43.05L355.26-43.05Q355.86-43.1 356.51-43.35 357.16-43.6 357.26-43.6L357.26-43.6Q357.61-43.6 357.61-43.2L357.61-43.2Q357.61-42.65 356.71-41.75L356.71-41.75Q356.26-41.3 355.86-41.15 355.46-41 355.03-40.95 354.61-40.9 354.36-40.85L354.36-40.85Q352.96-40.65 351.98-40.08 351.01-39.5 349.96-38.25L349.96-38.25Q347.96-35.75 347.03-32.48 346.11-29.2 345.31-24.25L345.31-24.25Q345.11-22.65 344.96-21.9L344.96-21.9 343.86-14.9 343.91-14.9Q346.26-18.95 349.01-21.38 351.76-23.8 353.76-23.8L353.76-23.8Q355.86-23.8 355.86-20.75L355.86-20.75Q355.86-19.35 355.46-17.15L355.46-17.15Q354.51-12.4 354.51-12.4L354.51-12.4Q353.06-5.05 353.06-3.95L353.06-3.95Q353.06-3.05 353.76-3.05L353.76-3.05Q354.61-3.05 355.31-4.17 356.01-5.3 356.81-7.15L356.81-7.15Q356.86-7.2 356.98-7.45 357.11-7.7 357.31-7.7L357.31-7.7Q357.66-7.7 357.66-7.1L357.66-7.1 357.56-6.3Q357.21-4.5 356.13-2.93 355.06-1.35 353.73-0.43 352.41 0.5 351.31 0.5L351.31 0.5Q349.51 0.5 349.51-2.35L349.51-2.35Q349.51-3.75 349.83-5.65 350.16-7.55 350.76-10.4L350.76-10.4Q351.36-13.25 351.68-15.05 352.01-16.85 352.06-18.3L352.06-18.3Q352.06-19.25 351.91-19.6 351.76-19.95 351.06-19.95L351.06-19.95Q349.51-19.95 347.73-17.93 345.96-15.9 344.56-12.95 343.16-10 342.66-7.45L342.66-7.45 341.86-3.1Q341.66-1.8 340.36-0.65 339.06 0.5 337.96 0.5L337.96 0.5ZM362.61 19.95Q360.66 19.95 359.31 18.88 357.96 17.8 357.31 16.15 356.66 14.5 356.66 12.75L356.66 12.75Q356.66 11.1 357.26 10.13 357.86 9.15 358.56 8.8 359.26 8.45 359.61 8.45L359.61 8.45Q359.86 8.45 359.86 8.95L359.86 8.95Q359.86 16.75 364.86 16.75L364.86 16.75Q368.41 16.75 370.41 12.5L370.41 12.5Q371.16 10.85 371.81 8.35 372.46 5.85 373.56 0.55L373.56 0.55Q374.01-1.6 374.06-1.9L374.06-1.9 375.56-8.8 375.51-8.8Q374.31-6.3 372.66-4.17 371.01-2.05 369.41-0.78 367.81 0.5 366.81 0.5L366.81 0.5Q365.71 0.5 365.28-1.18 364.86-2.85 364.91-5.25L364.91-5.25 365.31-17.75Q365.36-18.15 365.36-18.85L365.36-18.85Q365.36-19.65 365.18-20.05 365.01-20.45 364.51-20.45L364.51-20.45Q363.86-20.45 363.06-19.6 362.26-18.75 361.66-17.4L361.66-17.4Q361.36-16.55 361.01-16.55L361.01-16.55Q360.61-16.55 360.61-17.15L360.61-17.15Q360.61-18.4 361.51-20 362.41-21.6 363.78-22.7 365.16-23.8 366.41-23.8L366.41-23.8Q367.81-23.8 368.31-22.4 368.81-21 368.81-18.6L368.81-18.6 368.76-17 368.31-8.75 368.26-7.1Q368.26-5.5 368.48-4.8 368.71-4.1 369.31-4.1L369.31-4.1Q370.41-4.1 371.91-6.2 373.41-8.3 374.76-11.35 376.11-14.4 376.76-17.05L376.76-17.05 377.51-20.1Q377.96-21.95 379.23-22.88 380.51-23.8 381.56-23.8L381.56-23.8Q381.96-23.8 381.96-23.55L381.96-23.55Q381.96-23.3 381.78-22.85 381.61-22.4 381.51-22.2L381.51-22.2Q381.11-21.15 380.81-19.93 380.51-18.7 380.21-17L380.21-17 377.56-2.8 377.06 0.05Q376.46 3.55 375.96 5.58 375.46 7.6 374.56 9.58 373.66 11.55 372.01 13.65L372.01 13.65Q369.76 16.65 367.31 18.3 364.86 19.95 362.61 19.95L362.61 19.95Z" opacity="1" transform="matrix(1,0,0,1,0,0)" fill="#000000" class="wordmark-text-0" data-fill-palette-color="quaternary" id="text-0"></path></svg></g></svg></g></svg></g></svg></g><g transform="matrix(1,0,0,1,72.91556652267394,0)"><svg viewBox="0 0 67.32730818180924 48.73958493897534" height="48.73958493897534" width="67.32730818180924"><g><svg version="1.0" xmlns="http://www.w3.org/2000/svg" xmlns:xlink="http://www.w3.org/1999/xlink" x="0" y="0" viewBox="0 0 100 72.392" enable-background="new 0 0 100 72.392" xml:space="preserve" width="67.32730818180924" height="48.73958493897534" class="icon-icon-0" data-fill-palette-color="quaternary" id="icon-0"><path d="M58.823 17.958c7.955 0 14.862 4.381 18.675 10.834l22.476 0.026V16.637c0-4.533-3.647-8.21-8.121-8.21H8.096C3.608 8.427 0 12.104 0 16.637l0.023 12.078 40.112 0.027C43.975 22.312 50.854 17.958 58.823 17.958" fill="#000000" data-fill-palette-color="quaternary"></path><path d="M21.006 4.56h-7.451l-0.861 2.715h8.931L21.006 4.56z" fill="#000000" data-fill-palette-color="quaternary"></path><path d="M88.191 3.112h-9.921L76.51 7.3H89.8L88.191 3.112z" fill="#000000" data-fill-palette-color="quaternary"></path><path d="M54.137 5.854h-8.539V1.678h8.539V5.854zM61.965 0H37.855l-4.967 7.352h33.625L61.965 0z" fill="#000000" data-fill-palette-color="quaternary"></path><path d="M78.663 30.97c1.243 2.767 1.977 5.813 1.977 9.055 0 12.18-9.77 22.067-21.816 22.067-12.062 0-21.829-9.888-21.829-22.067 0-3.242 0.723-6.288 1.976-9.069H0v33.252c0 4.507 3.608 8.184 8.096 8.184h83.756c4.474 0 8.121-3.677 8.121-8.184L100 30.97H78.663z" fill="#000000" data-fill-palette-color="quaternary"></path><path d="M70.72 32.775c-0.342-0.615-0.773-1.192-1.242-1.741-2.547-3.1-6.359-5.138-10.654-5.138-4.309 0-8.121 2.026-10.668 5.112-0.468 0.563-0.9 1.14-1.267 1.767-1.278 2.127-2.052 4.585-2.052 7.25 0 7.788 6.26 14.114 13.987 14.114 7.689 0 13.95-6.326 13.95-14.114C72.773 37.361 72.013 34.903 70.72 32.775" fill="#000000" data-fill-palette-color="quaternary"></path></svg></g></svg></g><g></g></svg></g></svg></g></svg></g></svg></g><defs></defs></svg><rect width="342.85155851775386" height="342.85155851775386" fill="none" stroke="none" visibility="hidden"></rect></g></svg></g></svg>